:SAMPLES-PER-SECOND 30
:FULLY-SPECIFIED
:DEGREES
925
root  -8.74338 37.3131 2.36385 -155.029 -77.5383 176.008
RightUpLeg  -49.3713 -20.8029 7.16918
RightLeg  47.1485 -5.09072 -6.18801
RightFoot  -14.3666 -0.051146 1.83878
RightToes  2.91037e-010 0 -3.6325e-017
Spine  68.4361 -4.44384 4.02678
Spine1  19.208 0.281561 -7.50257
HEad  -36.7404 2.67939 -3.50712
LeftShoulder1  3.32993 -20.2474 -6.27834
LeftArm  -79.789 -66.7626 33.3335
LeftForeArm  -5.4305 0.161142 0.100312
LeftHand  -0.244104 0.0205437 5.32207
RightShoulder  0.175825 17.7947 -8.6657
RightArm  -68.8057 54.1148 -3.8196
RightForeArm  -19.542 -4.36486 -4.81572
RightHand  1.50643 4.39743 17.4215
LeftUpLeg  -57.3034 23.0804 -19.1216
LeftLeg  13.1102 -10.8671 -5.99352
LeftFoot  16.1974 3.79818 -15.9297
LeftToes  -1.10052e-010 1.3781e-010 -2.1811e-011
926
root  -7.66919 37.397 2.51633 -153.248 -77.6111 174.105
RightUpLeg  -50.5573 -20.7417 7.49398
RightLeg  45.8308 -5.00154 -5.81902
RightFoot  -12.6974 -0.0716134 1.18657
RightToes  2.91037e-010 0 -3.6325e-017
Spine  68.6145 -4.63907 4.17646
Spine1  19.7761 -0.315027 -6.16842
HEad  -36.3209 2.91555 -3.32756
LeftShoulder1  3.48501 -20.088 -7.12165
LeftArm  -81.2538 -66.6001 35.0958
LeftForeArm  -6.12283 0.0763091 0.12597
LeftHand  -0.244104 0.0205437 5.32207
RightShoulder  0.128195 17.8741 -8.92404
RightArm  -70.1191 54.0246 -5.53313
RightForeArm  -19.7481 -3.55663 -4.68961
RightHand  1.41544 4.07652 16.9396
LeftUpLeg  -59.7159 24.5934 -21.9626
LeftLeg  18.3411 -14.6683 -4.79611
LeftFoot  13.0947 4.08201 -18.9618
LeftToes  -1.10052e-010 1.3781e-010 -2.1811e-011
927
root  -6.65207 37.6253 2.79664 -151.089 -77.2281 172.211
RightUpLeg  -51.2039 -20.7713 7.8271
RightLeg  42.2378 -4.84295 -4.99905
RightFoot  -10.6066 -0.0687954 -0.174556
RightToes  2.91037e-010 0 -3.6325e-017
Spine  68.9113 -4.76705 3.9637
Spine1  19.8829 -0.658057 -5.3612
HEad  -35.6534 3.22928 -2.87437
LeftShoulder1  3.61073 -19.801 -7.92794
LeftArm  -82.2461 -66.6575 35.9546
LeftForeArm  -6.53956 -0.116546 0.172971
LeftHand  -0.244104 0.0205437 5.32207
RightShoulder  0.00397492 17.9665 -9.58866
RightArm  -70.3596 53.6343 -6.25823
RightForeArm  -19.7764 -3.04741 -4.50407
RightHand  1.34673 3.78366 16.6497
LeftUpLeg  -58.9641 21.2666 -16.9432
LeftLeg  25.7722 -5.34684 -2.36781
LeftFoot  7.83574 2.16697 -12.8932
LeftToes  -1.10052e-010 1.3781e-010 -2.1811e-011
928
root  -5.74917 37.8844 3.22826 -150.263 -76.019 172.053
RightUpLeg  -52.2594 -21.0467 8.68267
RightLeg  38.295 -3.94263 -3.61381
RightFoot  -7.42138 0.00191085 -1.54366
RightToes  2.91037e-010 0 -3.6325e-017
Spine  69.1251 -4.78976 3.77758
Spine1  19.3414 -0.728402 -5.24332
HEad  -35.2083 3.40562 -2.64214
LeftShoulder1  3.69778 -19.7517 -8.38238
LeftArm  -81.8048 -66.526 35.8349
LeftForeArm  -6.77703 -0.265903 0.0367327
LeftHand  -0.244104 0.0205437 5.32207
RightShoulder  -0.147042 18.1325 -10.3864
RightArm  -69.8761 53.0521 -6.44372
RightForeArm  -19.3143 -3.11333 -4.39835
RightHand  1.37659 3.88036 16.8338
LeftUpLeg  -58.3396 18.6245 -13.5167
LeftLeg  34.1766 2.84633 2.40046
LeftFoot  2.4725 0.631364 -5.46366
LeftToes  -1.10052e-010 1.3781e-010 -2.1811e-011
929
root  -4.94636 38.1127 3.7798 -150.684 -74.481 173.308
RightUpLeg  -53.539 -21.4222 9.87674
RightLeg  34.7637 -2.1581 -1.87246
RightFoot  -3.63953 0.131266 -2.31848
RightToes  2.91037e-010 0 -3.6325e-017
Spine  69.1957 -4.83645 3.8908
Spine1  18.7503 -0.725039 -5.25385
HEad  -35.1972 3.35071 -2.81195
LeftShoulder1  3.76451 -19.8487 -8.6262
LeftArm  -80.8438 -66.3392 35.3713
LeftForeArm  -7.04884 -0.399126 -0.17679
LeftHand  -0.244104 0.0205437 5.32207
RightShoulder  -0.237662 18.4809 -10.8461
RightArm  -69.8643 52.4724 -7.08588
RightForeArm  -18.7835 -3.29029 -4.43625
RightHand  1.4277 4.08326 17.0758
LeftUpLeg  -57.0765 16.6432 -11.2209
LeftLeg  41.5482 5.4199 5.42991
LeftFoot  -0.744709 0.194098 -2.15684
LeftToes  -1.10052e-010 1.3781e-010 -2.1811e-011
930
root  -4.20409 38.2809 4.40535 -151.43 -73.2107 174.851
RightUpLeg  -54.3952 -21.7411 11.1012
RightLeg  30.8499 -0.173876 -0.357371
RightFoot  -0.0723184 0.289166 -2.93296
RightToes  2.91037e-010 0 -3.6325e-017
Spine  69.1646 -4.98286 4.28432
Spine1  18.4503 -0.806683 -4.9052
HEad  -35.3433 3.14758 -3.09239
LeftShoulder1  3.84492 -19.7609 -9.0801
LeftArm  -80.8474 -66.5911 34.9706
LeftForeArm  -7.20395 -0.682655 -0.184631
LeftHand  -0.244104 0.0205437 5.32207
RightShoulder  -0.259252 18.7969 -10.9386
RightArm  -70.6873 52.1517 -8.00315
RightForeArm  -18.441 -3.18825 -4.60712
RightHand  1.40245 3.94031 17.0365
LeftUpLeg  -55.0453 14.5091 -9.61696
LeftLeg  46.7022 3.76662 4.66813
LeftFoot  -1.58807 0.154563 -1.70874
LeftToes  -1.10052e-010 1.3781e-010 -2.1811e-011
931
root  -3.49335 38.349 5.09515 -152.284 -72.1058 176.409
RightUpLeg  -55.0178 -22.1543 12.5205
RightLeg  26.5598 1.86627 0.757899
RightFoot  3.10384 0.428171 -3.21944
RightToes  2.91037e-010 0 -3.6325e-017
Spine  69 -5.17507 4.77128
Spine1  18.2089 -0.915023 -4.50516
HEad  -35.3164 2.99375 -3.20629
LeftShoulder1  3.93143 -19.4436 -9.7553
LeftArm  -81.7726 -67.3015 34.5267
LeftForeArm  -6.94128 -1.16457 0.0236417
LeftHand  -0.244104 0.0205437 5.32207
RightShoulder  -0.289803 18.8855 -11.0893
RightArm  -71.3607 52.006 -8.09623
RightForeArm  -18.0333 -2.97301 -4.82873
RightHand  1.34842 3.59432 17.033
LeftUpLeg  -52.2969 12.3307 -8.79582
LeftLeg  49.2641 1.6841 2.56366
LeftFoot  -2.31057 0.166069 -1.95368
LeftToes  -1.10052e-010 1.3781e-010 -2.1811e-011
932
root  -2.78229 38.3604 5.85533 -152.719 -70.7823 177.41
RightUpLeg  -55.758 -22.8227 14.0415
RightLeg  22.4875 4.17018 1.74487
RightFoot  6.43866 0.497084 -2.88917
RightToes  2.91037e-010 0 -3.6325e-017
Spine  68.7866 -5.34613 4.92277
Spine1  18.1362 -0.833009 -4.67678
HEad  -35.033 2.99272 -3.36169
LeftShoulder1  3.99843 -19.1607 -10.3226
LeftArm  -82.3838 -67.9749 33.7839
LeftForeArm  -6.22205 -1.81534 0.195771
LeftHand  -0.244104 0.0205437 5.32207
RightShoulder  -0.370977 18.9476 -11.4976
RightArm  -71.0258 51.6883 -7.1099
RightForeArm  -17.4325 -3.00532 -5.01614
RightHand  1.37958 3.57335 17.4639
LeftUpLeg  -48.6931 11.1006 -9.31699
LeftLeg  48.1003 1.11692 1.76418
LeftFoot  -5.74077 0.120422 -1.70868
LeftToes  -1.10052e-010 1.3781e-010 -2.1811e-011
933
root  -2.04792 38.3338 6.68252 -152.857 -69.3009 177.902
RightUpLeg  -55.6465 -22.3405 13.3486
RightLeg  18.486 4.40145 2.92742
RightFoot  10.1978 0.506472 -2.27896
RightToes  2.91037e-010 0 -3.6325e-017
Spine  68.7292 -5.52344 4.6845
Spine1  18.5358 -0.538379 -5.30898
HEad  -34.5969 3.11218 -3.94903
LeftShoulder1  4.02057 -18.942 -10.625
LeftArm  -82.1812 -68.3509 32.8192
LeftForeArm  -5.38908 -2.56545 0.187962
LeftHand  -0.244104 0.0205437 5.32207
RightShoulder  -0.449393 19.2695 -11.8643
RightArm  -70.1186 51.1743 -5.91716
RightForeArm  -16.9113 -3.30387 -5.1566
RightHand  1.49921 3.97155 18.1474
LeftUpLeg  -45.0237 11.4085 -11.1522
LeftLeg  43.1868 1.84468 2.2436
LeftFoot  -11.614 0.0823348 0.16772
LeftToes  -1.10052e-010 1.3781e-010 -2.1811e-011
934
root  -1.2612 38.2249 7.54836 -153.386 -68.1657 178.498
RightUpLeg  -53.3019 -18.8171 7.44262
RightLeg  13.6016 -0.754553 4.68719
RightFoot  13.8816 0.047827 0.162525
RightToes  2.91037e-010 0 -3.6325e-017
Spine  68.7448 -5.81266 4.53307
Spine1  18.9058 -0.33062 -5.761
HEad  -34.2355 3.2798 -4.84627
LeftShoulder1  3.94981 -18.5759 -10.6016
LeftArm  -82.0331 -68.6095 32.3043
LeftForeArm  -4.89838 -3.2381 0.0840916
LeftHand  -0.244104 0.0205437 5.32207
RightShoulder  -0.463798 19.8089 -11.8826
RightArm  -69.4162 50.6407 -5.2352
RightForeArm  -16.8029 -3.57672 -5.24397
RightHand  1.59725 4.28372 18.6949
LeftUpLeg  -43.0542 12.8368 -13.5686
LeftLeg  37.5378 2.72151 2.6307
LeftFoot  -16.1676 0.259713 3.98562
LeftToes  -1.10052e-010 1.3781e-010 -2.1811e-011
935
root  -0.440832 38.0588 8.38357 -153.481 -67.5553 178.402
RightUpLeg  -50.6301 -15.7455 0.830409
RightLeg  8.1144 -5.45225 6.73889
RightFoot  16.284 -1.98217 8.4949
RightToes  2.91037e-010 0 -3.6325e-017
Spine  68.7631 -6.231 4.38698
Spine1  18.8281 -0.346706 -6.04352
HEad  -34.1459 3.50723 -5.45478
LeftShoulder1  3.75703 -18.0386 -10.1085
LeftArm  -83.3919 -68.9192 33.4401
LeftForeArm  -4.83986 -3.6847 0.0349045
LeftHand  -0.244104 0.0205437 5.32207
RightShoulder  -0.440206 20.39 -11.7131
RightArm  -68.9904 49.8697 -5.1102
RightForeArm  -17.3215 -3.62796 -5.25788
RightHand  1.59977 4.11345 19.0664
LeftUpLeg  -43.7476 14.401 -16.216
LeftLeg  34.9439 2.77232 2.45514
LeftFoot  -16.8073 0.473661 7.95521
LeftToes  -1.10052e-010 1.3781e-010 -2.1811e-011
